<svg width="37" height="37" viewBox="0 0 37 37" fill="none" xmlns="http://www.w3.org/2000/svg">
<rect x="0.5" y="0.5" width="34" height="34" rx="1.5" stroke="#666666"/>
<line x1="6" y1="8.5" x2="29" y2="8.5" stroke="#666666"/>
<path d="M6.74 28V26.64L12.44 21.14C12.9467 20.66 13.32 20.24 13.56 19.88C13.8133 19.5067 13.98 19.1667 14.06 18.86C14.1533 18.54 14.2 18.2333 14.2 17.94C14.2 17.22 13.9467 16.6533 13.44 16.24C12.9333 15.8267 12.1933 15.62 11.22 15.62C10.4733 15.62 9.8 15.7467 9.2 16C8.6 16.24 8.08 16.62 7.64 17.14L6.28 15.96C6.81333 15.28 7.52667 14.76 8.42 14.4C9.32667 14.0267 10.32 13.84 11.4 13.84C12.3733 13.84 13.22 14 13.94 14.32C14.66 14.6267 15.2133 15.0733 15.6 15.66C16 16.2467 16.2 16.94 16.2 17.74C16.2 18.1933 16.14 18.64 16.02 19.08C15.9 19.52 15.6733 19.9867 15.34 20.48C15.0067 20.9733 14.5267 21.5267 13.9 22.14L8.82 27.04L8.34 26.26H16.8V28H6.74ZM22.9844 13.84C24.251 13.84 25.3177 14.1133 26.1844 14.66C27.0644 15.2067 27.731 16 28.1844 17.04C28.6377 18.0667 28.8644 19.3267 28.8644 20.82C28.8644 22.4067 28.5844 23.7467 28.0244 24.84C27.4644 25.9333 26.691 26.76 25.7044 27.32C24.7177 27.88 23.5644 28.16 22.2444 28.16C21.591 28.16 20.9577 28.0933 20.3444 27.96C19.7444 27.8267 19.2177 27.62 18.7644 27.34L19.5244 25.78C19.8977 26.02 20.311 26.1933 20.7644 26.3C21.231 26.3933 21.7177 26.44 22.2244 26.44C23.6377 26.44 24.7644 26 25.6044 25.12C26.4444 24.2267 26.8644 22.9067 26.8644 21.16C26.8644 20.88 26.851 20.5467 26.8244 20.16C26.7977 19.7733 26.7377 19.3933 26.6444 19.02L27.3044 19.7C27.1177 20.3133 26.8044 20.8333 26.3644 21.26C25.9377 21.6733 25.4177 21.9867 24.8044 22.2C24.2044 22.4 23.5444 22.5 22.8244 22.5C21.9044 22.5 21.0844 22.3267 20.3644 21.98C19.6444 21.6333 19.0777 21.1467 18.6644 20.52C18.251 19.88 18.0444 19.1267 18.0444 18.26C18.0444 17.3533 18.2577 16.5733 18.6844 15.92C19.1244 15.2533 19.7177 14.74 20.4644 14.38C21.2244 14.02 22.0644 13.84 22.9844 13.84ZM23.0644 15.46C22.4644 15.46 21.931 15.5733 21.4644 15.8C20.9977 16.0267 20.631 16.34 20.3644 16.74C20.111 17.14 19.9844 17.62 19.9844 18.18C19.9844 19.0067 20.271 19.6667 20.8444 20.16C21.4177 20.64 22.191 20.88 23.1644 20.88C23.8044 20.88 24.3644 20.76 24.8444 20.52C25.3377 20.28 25.7177 19.9533 25.9844 19.54C26.2644 19.1267 26.4044 18.6667 26.4044 18.16C26.4044 17.6667 26.2777 17.22 26.0244 16.82C25.771 16.42 25.3977 16.0933 24.9044 15.84C24.411 15.5867 23.7977 15.46 23.0644 15.46Z" fill="#666666"/>
</svg>
